<?xml version="1.0" encoding="UTF-8"?>
<svg width="24px" height="24px" viewBox="0 0 24 24" version="1.1" xmlns="http://www.w3.org/2000/svg" xmlns:xlink="http://www.w3.org/1999/xlink">
    <!-- Generator: Sketch 63.1 (92452) - https://sketch.com -->
    <title>icon/icon_error</title>
    <desc>Created with Sketch.</desc>
    <g id="icon/icon_error" stroke="none" stroke-width="1" fill="none" fill-rule="evenodd">
        <path d="M4.09977259,20.8437075 L19.9002274,20.8437075 C21.5159446,20.8437075 22.5231449,19.0915987 21.7152863,17.6962066 L13.8150589,4.04654407 C13.0072003,2.65115198 10.9927997,2.65115198 10.1849411,4.04654407 L2.28471371,17.6962066 C1.47685513,19.0915987 2.48405543,20.8437075 4.09977259,20.8437075 Z M12,13.4995386 C11.4229582,13.4995386 10.950833,13.0274135 10.950833,12.4503716 L10.950833,10.3520377 C10.950833,9.77499581 11.4229582,9.30287067 12,9.30287067 C12.5770418,9.30287067 13.049167,9.77499581 13.049167,10.3520377 L13.049167,12.4503716 C13.049167,13.0274135 12.5770418,13.4995386 12,13.4995386 Z M13.049167,17.6962066 L10.950833,17.6962066 L10.950833,15.5978726 L13.049167,15.5978726 L13.049167,17.6962066 Z" id="Shape" fill="#252525" fill-rule="nonzero"></path>
    </g>
</svg>
