<?xml version="1.0" encoding="utf-8"?>
<svg version="1.1" id="レイヤー_1" xmlns="http://www.w3.org/2000/svg" x="0px"
	 y="0px" width="236.824px" height="48.844px" viewBox="0 0 236.824 48.844"
	 style="enable-background:new 0 0 236.824 48.844;"
	 xml:space="preserve">
<style type="text/css">
	.st0{fill-rule:evenodd;clip-rule:evenodd;fill:#252525;}
</style>
<path class="st0" d="M44.963,9.096H30.605l5.894-5.557c0.815-0.768,0.861-2.061,0.104-2.887c-0.758-0.826-2.032-0.873-2.847-0.105
	l-9.068,8.549L15.62,0.547c-0.815-0.768-2.09-0.721-2.847,0.105c-0.758,0.826-0.711,2.119,0.104,2.887l5.894,5.557H4.415
	C1.98,9.096,0,11.076,0,13.518v26.529c0,2.445,1.98,4.426,4.415,4.426h5.593l3.333,3.884c0.557,0.649,1.46,0.649,2.017,0
	l3.333-3.884h11.996l3.333,3.884c0.557,0.649,1.46,0.649,2.017,0l3.333-3.884h5.595c2.441,0,4.413-1.981,4.413-4.426V13.518
	C49.376,11.076,47.405,9.096,44.963,9.096z M103.636,12.901c0-2.268-1.814-4.107-4.051-4.107H73.428
	c-2.237,0-4.051,1.839-4.051,4.107s1.814,4.107,4.051,4.107h26.158C101.822,17.008,103.636,15.169,103.636,12.901z M103.984,40.738
	c0-2.268-1.814-4.107-4.051-4.107H73.009c-2.237,0-4.051,1.839-4.051,4.107s1.814,4.107,4.051,4.107h26.925
	C102.17,44.845,103.984,43.006,103.984,40.738z M147.841,34.989v-16.84c0-5.435-4.36-9.856-9.719-9.856h-20.801
	c-2.237,0-4.051,1.839-4.051,4.107s1.814,4.107,4.051,4.107h18.776c2.173,0,3.643,1.435,3.643,3.695v12.733
	c0,2.398-1.334,3.695-3.643,3.695h-18.776c-2.237,0-4.051,1.839-4.051,4.107s1.814,4.107,4.051,4.107h20.801
	C143.481,44.845,147.841,40.424,147.841,34.989z M192.583,12.901c0-2.268-1.814-4.107-4.051-4.107h-26.158
	c-2.237,0-4.051,1.839-4.051,4.107s1.814,4.107,4.051,4.107h26.158C190.77,17.008,192.583,15.169,192.583,12.901z M192.967,40.738
	c0-2.268-1.814-4.107-4.051-4.107h-26.925c-2.237,0-4.051,1.839-4.051,4.107s1.814,4.107,4.051,4.107h26.925
	C191.153,44.845,192.967,43.006,192.967,40.738z M236.824,34.989v-16.84c0-5.435-4.36-9.856-9.719-9.856h-20.801
	c-2.237,0-4.051,1.839-4.051,4.107s1.814,4.107,4.051,4.107h18.776c2.173,0,3.643,1.435,3.643,3.695v12.733
	c0,2.398-1.334,3.695-3.643,3.695h-18.776c-2.237,0-4.051,1.839-4.051,4.107s1.814,4.107,4.051,4.107h20.801
	C232.464,44.845,236.824,40.424,236.824,34.989z"/>
</svg>
